<?xml version="1.0" encoding="UTF-8"?>
<svg version="1.1" xmlns="http://www.w3.org/2000/svg" width="390" height="196">
<path d="M0 0 C128.7 0 257.4 0 390 0 C390 64.68 390 129.36 390 196 C261.3 196 132.6 196 0 196 C0 131.32 0 66.64 0 0 Z " fill="#FDFDFC" transform="translate(0,0)"/>
<path d="M0 0 C3.10707682 1.59041766 5.23232123 3.50151607 7.7578125 5.91015625 C11.36637795 9.29364383 15.02986517 12.55479571 18.8828125 15.66015625 C23.38648806 19.29526581 27.77269552 23.04322972 32.1328125 26.84765625 C36.41484031 30.58184583 40.71613297 34.27224901 45.1328125 37.84765625 C51.46154995 42.97627756 57.57987084 48.34040296 63.72314453 53.68798828 C70.76553641 59.80844085 77.82284051 65.90795962 85.0703125 71.78515625 C91.35997459 76.89492604 97.54582374 82.15057033 103.56549072 87.57705688 C105.61989787 89.39200297 105.61989787 89.39200297 107.93916321 90.97801208 C111.49360915 93.65642605 114.18559963 95.76299535 115.42254639 100.14601135 C115.67220623 103.44641797 115.64648426 106.63434098 115.51171875 109.94140625 C115.49261696 111.72230652 115.49261696 111.72230652 115.47312927 113.53918457 C115.42296753 117.31080137 115.31009172 121.0775079 115.1953125 124.84765625 C115.15014432 127.41269066 115.10908387 129.9778009 115.07226562 132.54296875 C114.97333191 138.81285759 114.82296645 145.07990615 114.6328125 151.34765625 C110.60799539 149.45020364 107.3681559 146.84238033 103.9453125 144.03515625 C98.35104497 139.49746838 92.68767016 135.07126287 86.9453125 130.72265625 C80.99329757 126.20604476 75.21500172 121.55366399 69.5078125 116.73046875 C66.00108944 113.82408143 62.39318898 111.06361399 58.76855469 108.30786133 C54.31695109 104.9086105 49.96787648 101.39391628 45.6328125 97.84765625 C34.85340922 89.03993839 23.77259663 80.70249435 12.6328125 72.34765625 C12.6328125 98.41765625 12.6328125 124.48765625 12.6328125 151.34765625 C6.3238788 150.71676288 1.23883831 150.18402168 -4.7109375 148.640625 C-5.36437134 148.47395828 -6.01780518 148.30729156 -6.69104004 148.13557434 C-8.75158461 147.60892635 -10.80946809 147.0727257 -12.8671875 146.53515625 C-24.32534462 143.56949929 -35.80392328 140.91727052 -47.3671875 138.34765625 C-47.3671875 97.09765625 -47.3671875 55.84765625 -47.3671875 13.34765625 C-19.58940972 4.45876736 -19.58940972 4.45876736 -8.5 1.2578125 C-2.14032185 -0.58982467 -2.14032185 -0.58982467 0 0 Z " fill="#242021" transform="translate(62.3671875,0.65234375)"/>
<path d="M0 0 C0.69261028 0.01456421 1.38522055 0.02912841 2.09881902 0.04413396 C2.84135969 0.03986184 3.58390037 0.03558971 4.34894228 0.03118813 C6.83846647 0.02294843 9.32630786 0.05045694 11.81567693 0.07777959 C13.59949509 0.07918986 15.38331615 0.0783985 17.16713262 0.07556707 C22.01203615 0.07413068 26.85632254 0.1035565 31.70108247 0.13843685 C36.76327642 0.16966324 41.82548404 0.17262816 46.88775945 0.17856389 C56.47486525 0.19411327 66.06168646 0.23515659 75.64866686 0.28531134 C86.56265928 0.34117073 97.4766652 0.36868275 108.39076495 0.39378852 C130.8427815 0.44607143 153.29454531 0.53403504 175.74634099 0.64540654 C175.77340544 3.54130306 175.79321128 6.43694449 175.80884099 9.33290654 C175.8172199 10.14952764 175.8255988 10.96614873 175.83423162 11.80751592 C175.83745427 12.60351201 175.84067693 13.39950811 175.84399724 14.21962529 C175.84923406 14.94754277 175.85447087 15.67546026 175.85986638 16.42543584 C175.74634099 18.64540654 175.74634099 18.64540654 174.74634099 23.64540654 C152.96634099 23.64540654 131.18634099 23.64540654 108.74634099 23.64540654 C108.74634099 61.92540654 108.74634099 100.20540654 108.74634099 139.64540654 C105.58519374 140.90986544 103.01925305 141.91902797 99.80151677 142.66689092 C98.69479115 142.9272614 98.69479115 142.9272614 97.56570745 143.1928919 C96.78226964 143.37315923 95.99883183 143.55342656 95.19165349 143.73915654 C94.37188024 143.93134771 93.55210698 144.12353887 92.70749211 144.32155401 C90.09628726 144.93319373 87.48390818 145.53961482 84.87134099 146.14540654 C82.26610217 146.75196057 79.66114161 147.35966161 77.05661321 147.96925908 C75.43981836 148.34742473 73.82259218 148.72375275 72.2048676 149.09792119 C68.76310997 149.90077594 65.39350918 150.75212699 62.00757146 151.77626592 C58.74634099 152.64540654 58.74634099 152.64540654 53.74634099 152.64540654 C53.74634099 110.40540654 53.74634099 68.16540654 53.74634099 24.64540654 C27.67634099 24.64540654 1.60634099 24.64540654 -25.25365901 24.64540654 C-21.58117654 19.74876325 -18.23650196 15.36836489 -14.12865901 10.95790654 C-10.60083851 7.1815482 -10.60083851 7.1815482 -7.56523967 3.019656 C-4.98103102 0.3653874 -3.64366192 0.05681422 0 0 Z " fill="#242021" transform="translate(201.25365900993347,-0.6454065442085266)"/>
<path d="M0 0 C15.51 0 31.02 0 47 0 C47 27.72 47 55.44 47 84 C31.16 84 15.32 84 -1 84 C-1.18451025 24.87471526 -1.18451025 24.87471526 0 0 Z " fill="#F6931E" transform="translate(177,69)"/>
<path d="M0 0 C15.84 0 31.68 0 48 0 C48 8.58 48 17.16 48 26 C32.16 26 16.32 26 0 26 C0 17.42 0 8.84 0 0 Z " fill="#242021" transform="translate(176,36)"/>
<path d="M0 0 C7.87370184 0 7.87370184 0 10.9453125 2.4921875 C11.62408447 3.02803467 12.30285645 3.56388184 13.00219727 4.1159668 C13.70272217 4.69644775 14.40324707 5.27692871 15.125 5.875 C16.61568173 7.06666109 18.10656965 8.25806429 19.59765625 9.44921875 C20.33387207 10.04653809 21.07008789 10.64385742 21.82861328 11.25927734 C23.85762372 12.88586206 25.91337699 14.46258941 27.99609375 16.01953125 C28.60114746 16.47279785 29.20620117 16.92606445 29.82958984 17.39306641 C30.68738037 18.03381104 30.68738037 18.03381104 31.5625 18.6875 C33.41507854 20.07296571 35.24379357 21.49424388 37 23 C37 23.66 37 24.32 37 25 C37.66 25 38.32 25 39 25 C39 16.75 39 8.5 39 0 C40.98 0 42.96 0 45 0 C45 9.9 45 19.8 45 30 C37.1414791 30 37.1414791 30 32.1875 25.875 C31.07346959 24.96807039 29.95884939 24.06186494 28.84375 23.15625 C28.24046875 22.65738281 27.6371875 22.15851563 27.015625 21.64453125 C24.01296983 19.1946905 20.94615991 16.82965886 17.88085938 14.45898438 C14.24745492 11.64764097 10.62483175 8.82238808 7 6 C6.67 13.92 6.34 21.84 6 30 C4.02 29.67 2.04 29.34 0 29 C0 19.43 0 9.86 0 0 Z " fill="#2D2A2B" transform="translate(334,165)"/>
<path d="M0 0 C-1.1875 1.5625 -1.1875 1.5625 -3 3 C-5.35546875 2.703125 -5.35546875 2.703125 -8 2 C-15.03065294 1.45352174 -20.61619486 1.92631604 -27 5 C-28.46769227 7.93538453 -28.28669649 10.60777016 -28.375 13.875 C-28.42398438 15.10992187 -28.47296875 16.34484375 -28.5234375 17.6171875 C-28.28329229 21.07646299 -28.28329229 21.07646299 -26.00390625 23.41796875 C-22.04192454 25.5045781 -18.96993686 25.55620595 -14.5625 25.4375 C-13.82451172 25.44458984 -13.08652344 25.45167969 -12.32617188 25.45898438 C-6.97040642 25.39709553 -5.31685098 24.65842549 0 22 C0.33 16.39 0.66 10.78 1 5 C2.32 4.34 3.64 3.68 5 3 C9.12888874 7.40341591 8.54527121 11.95379781 8.4140625 17.703125 C8 21 8 21 5.875 24.1875 C-0.84915445 28.42664085 -5.5224595 29.49832954 -13.375 29.4375 C-14.2825 29.45748047 -15.19 29.47746094 -16.125 29.49804688 C-22.20434788 29.49366694 -27.0243799 28.65979117 -32 25 C-35.9767264 20.30239292 -35.67538649 15.24973169 -35.5390625 9.33203125 C-34.97907964 5.87068795 -34.53945954 4.58653469 -32 2.25 C-22.36496103 -4.03204541 -10.60573516 -2.78183217 0 0 Z " fill="#2B2728" transform="translate(92,166)"/>
<path d="M0 0 C1.10541138 -0.00833862 1.10541138 -0.00833862 2.2331543 -0.0168457 C6.35292942 0.03779818 9.60761177 0.47832457 13.3125 2.3125 C12.9825 2.9725 12.6525 3.6325 12.3125 4.3125 C11.73806152 4.29155273 11.16362305 4.27060547 10.57177734 4.24902344 C7.94386626 4.16536236 5.3162361 4.1136854 2.6875 4.0625 C1.78386719 4.02898437 0.88023437 3.99546875 -0.05078125 3.9609375 C-4.37878901 3.89775491 -7.26175577 4.12964239 -11.2890625 5.859375 C-13.9834217 8.1861354 -13.9834217 8.1861354 -14.484375 11.84375 C-14.46890625 13.1534375 -14.4534375 14.463125 -14.4375 15.8125 C-14.45296875 17.1221875 -14.4684375 18.431875 -14.484375 19.78125 C-13.9931799 23.46866168 -13.9931799 23.46866168 -11.140625 25.7578125 C-7.18787453 27.5374445 -3.93516728 27.8392024 0.3125 27.6875 C1.34117187 27.68556641 1.34117187 27.68556641 2.390625 27.68359375 C6.9586982 27.60513448 9.82057066 26.80980978 14.3125 25.3125 C14.3125 19.3725 14.3125 13.4325 14.3125 7.3125 C15.9625 6.6525 17.6125 5.9925 19.3125 5.3125 C22.22124538 8.22124538 21.68057007 11.23384487 21.6875 15.125 C21.71199219 15.83720703 21.73648438 16.54941406 21.76171875 17.28320312 C21.7808657 20.73284533 21.43279842 23.08948523 19.7890625 26.13671875 C14.12393673 31.11380874 7.69384122 31.84678323 0.375 31.75 C-0.41334229 31.74387695 -1.20168457 31.73775391 -2.01391602 31.73144531 C-8.76293492 31.55000131 -14.43940149 30.52317802 -19.3828125 25.63671875 C-21.23630379 22.33484055 -21.12127007 19.63849479 -21.125 15.875 C-21.14433594 14.57691406 -21.16367187 13.27882812 -21.18359375 11.94140625 C-20.61682816 7.79553827 -19.63544095 6.21802454 -16.6875 3.3125 C-11.21779779 0.20227717 -6.16122419 0.03993568 0 0 Z " fill="#2F2B2C" transform="translate(298.6875,164.6875)"/>
<path d="M0 0 C0.495 0.99 0.495 0.99 1 2 C-3.41195114 2.9454181 -6.59082518 2.74197978 -11 2 C-13.33075531 1.86227355 -15.66538113 1.78071867 -18 1.75 C-19.175625 1.72421875 -20.35125 1.6984375 -21.5625 1.671875 C-25.33505664 2.03198268 -27.74346285 3.11359129 -31 5 C-31 6.32 -31 7.64 -31 9 C-24.31472465 11.15179427 -17.61451067 11.91836814 -10.65039062 12.6796875 C-5.05386902 13.38780238 -1.32081686 14.28027877 3 18 C3.625 20.5 3.625 20.5 3 23 C0.15261385 26.98634061 -3.34404104 28.15304279 -8 29 C-11.98262943 29.30552173 -15.94462862 29.32475559 -19.9375 29.3125 C-20.98357422 29.32861328 -22.02964844 29.34472656 -23.10742188 29.36132812 C-29.46213491 29.36532229 -34.20766103 28.64175267 -40 26 C-39.34 25.34 -38.68 24.68 -38 24 C-36.40257098 24.20048704 -34.80598302 24.41579403 -33.22021484 24.69384766 C-28.61544433 25.32881381 -23.95273557 25.18456871 -19.3125 25.1875 C-18.28060547 25.19974609 -17.24871094 25.21199219 -16.18554688 25.22460938 C-15.19232422 25.22654297 -14.19910156 25.22847656 -13.17578125 25.23046875 C-12.27770752 25.23457764 -11.37963379 25.23868652 -10.4543457 25.24291992 C-7.8612541 24.98626756 -6.23045556 24.31124932 -4 23 C-4.33 21.35 -4.66 19.7 -5 18 C-12.48000091 16.53821188 -19.94164337 15.48262459 -27.51953125 14.66015625 C-31.1815904 13.96555693 -33.83264194 12.95422688 -37 11 C-38.125 8.0625 -38.125 8.0625 -38 5 C-35.50697824 0.84496374 -31.37229316 -0.26295272 -26.90625 -1.46484375 C-18.21967426 -3.06438794 -8.46600319 -2.61735213 0 0 Z " fill="#272324" transform="translate(45,166)"/>
<path d="M0 0 C2.97 0.495 2.97 0.495 6 1 C6.00410889 1.61520508 6.00821777 2.23041016 6.01245117 2.86425781 C6.04541296 5.66047231 6.11605576 8.45451504 6.1875 11.25 C6.19330078 12.21808594 6.19910156 13.18617188 6.20507812 14.18359375 C6.34436754 19.82782386 6.34436754 19.82782386 9.01953125 24.6484375 C12.98184836 26.44524185 16.20225293 26.51603142 20.5 26.375 C21.61955078 26.37306641 21.61955078 26.37306641 22.76171875 26.37109375 C26.88317299 26.30544227 30.31908514 26.04647878 34 24 C36.12280563 20.81579155 36.28019537 19.79462745 36.4140625 16.11328125 C36.45273438 15.17548828 36.49140625 14.23769531 36.53125 13.27148438 C36.57765625 11.80678711 36.57765625 11.80678711 36.625 10.3125 C36.66367188 9.32443359 36.70234375 8.33636719 36.7421875 7.31835938 C36.83645867 4.87909293 36.92206218 2.43983405 37 0 C38.98 0.33 40.96 0.66 43 1 C43.0875127 4.22899426 43.14056146 7.45768116 43.1875 10.6875 C43.21263672 11.59951172 43.23777344 12.51152344 43.26367188 13.45117188 C43.31813295 18.44343729 43.34748754 21.99098516 40 26 C33.83924722 30.42310456 27.94691737 30.2098799 20.625 30.25 C19.69171875 30.270625 18.7584375 30.29125 17.796875 30.3125 C11.06765327 30.3506259 6.91499073 29.4468548 1.640625 25.01953125 C-0.892556 20.35727193 -0.42330759 15.89672623 -0.25 10.6875 C-0.23195312 9.66076172 -0.21390625 8.63402344 -0.1953125 7.57617188 C-0.14831063 5.04982115 -0.08262272 2.52539531 0 0 Z " fill="#312D2E" transform="translate(158,165)"/>
<path d="M0 0 C2.97 0.495 2.97 0.495 6 1 C6 9.58 6 18.16 6 27 C9.08794922 26.94779297 9.08794922 26.94779297 12.23828125 26.89453125 C14.23395705 26.87367053 16.22963556 26.85291635 18.2253418 26.83520508 C19.61147919 26.82012603 20.99756894 26.7996595 22.38354492 26.77368164 C24.37658146 26.73726284 26.36996723 26.72186982 28.36328125 26.70703125 C29.56251221 26.6913208 30.76174316 26.67561035 31.99731445 26.65942383 C35 27 35 27 38 30 C25.46 30 12.92 30 0 30 C0 20.1 0 10.2 0 0 Z " fill="#2D2A2B" transform="translate(112,165)"/>
<path d="M0 0 C13.53 0 27.06 0 41 0 C41 0.66 41 1.32 41 2 C34.73 2 28.46 2 22 2 C22 10.91 22 19.82 22 29 C20.35 29.33 18.7 29.66 17 30 C17 20.76 17 11.52 17 2 C11.06 2 5.12 2 -1 2 C-0.67 1.34 -0.34 0.68 0 0 Z " fill="#1C1819" transform="translate(208,165)"/>
<path d="M0 0 C3.875 1.75 3.875 1.75 5 4 C6.09619687 16.3557047 6.09619687 16.3557047 2.875 21.1875 C-2.30160122 24.45100947 -5.74114254 26.44706125 -12 26 C-12 25.67 -12 25.34 -12 25 C-15.63 24.67 -19.26 24.34 -23 24 C-23 23.67 -23 23.34 -23 23 C-21.58847656 22.94392578 -21.58847656 22.94392578 -20.1484375 22.88671875 C-18.90320313 22.82097656 -17.65796875 22.75523437 -16.375 22.6875 C-14.53035156 22.60048828 -14.53035156 22.60048828 -12.6484375 22.51171875 C-8.8576575 21.98003547 -6.29970329 20.89352204 -3 19 C-2.95101562 17.79601562 -2.90203125 16.59203125 -2.8515625 15.3515625 C-2.77653657 13.77601802 -2.70098867 12.20049834 -2.625 10.625 C-2.57859375 9.43390625 -2.57859375 9.43390625 -2.53125 8.21875 C-2.2265625 2.2265625 -2.2265625 2.2265625 0 0 Z " fill="#373334" transform="translate(95,169)"/>
<path d="M0 0 C1.98 0 3.96 0 6 0 C6 8.25 6 16.5 6 25 C4.02 24.67 2.04 24.34 0 24 C0 16.08 0 8.16 0 0 Z " fill="#FCB84A" transform="translate(258,170)"/>
<path d="M0 0 C-1.1875 1.5625 -1.1875 1.5625 -3 3 C-5.34375 2.6953125 -5.34375 2.6953125 -8 2 C-9.83162259 1.91052418 -11.66620048 1.86984888 -13.5 1.875 C-14.4178125 1.87242187 -15.335625 1.86984375 -16.28125 1.8671875 C-18.95004454 1.99755965 -21.39865153 2.40621394 -24 3 C-24.33 1.68 -24.66 0.36 -25 -1 C-16.4311407 -2.92645218 -8.42887429 -2.21085227 0 0 Z " fill="#343031" transform="translate(92,166)"/>
<path d="M0 0 C8.05724784 -0.23057307 16.21601612 -0.40649883 24 2 C24.33 2.66 24.66 3.32 25 4 C19.38172748 5.33457304 14.28287348 4.71222727 8.625 4.0625 C7.23474609 3.91264648 7.23474609 3.91264648 5.81640625 3.75976562 C3.54337864 3.51371624 1.27143509 3.26027524 -1 3 C-0.67 2.01 -0.34 1.02 0 0 Z " fill="#312E2F" transform="translate(21,164)"/>
<path d="M0 0 C1.64441365 0.18412354 3.28882694 0.38450084 4.91845703 0.67138672 C8.73109657 1.27328829 12.58609493 1.37318839 16.4375 1.5625 C17.67790039 1.62727539 17.67790039 1.62727539 18.94335938 1.69335938 C20.96209549 1.79838033 22.98102951 1.89958559 25 2 C25 2.33 25 2.66 25 3 C21.37 3 17.74 3 14 3 C14 3.66 14 4.32 14 5 C7.79029227 5.33266291 3.71735105 4.45029331 -2 2 C-1.34 1.34 -0.68 0.68 0 0 Z " fill="#545151" transform="translate(7,190)"/>
<path d="M0 0 C1.21945313 0.11859375 2.43890625 0.2371875 3.6953125 0.359375 C5.51675781 0.52179688 5.51675781 0.52179688 7.375 0.6875 C10.23694162 1.03794183 13.0068329 1.48891182 15.8203125 2.109375 C15.4903125 3.429375 15.1603125 4.749375 14.8203125 6.109375 C7.8903125 5.119375 0.9603125 4.129375 -6.1796875 3.109375 C-3.1796875 0.109375 -3.1796875 0.109375 0 0 Z " fill="#302C2D" transform="translate(26.1796875,177.890625)"/>
<path d="M0 0 C6.625 -0.125 6.625 -0.125 10 1 C12.22574335 1.22451458 14.45581519 1.40782878 16.6875 1.5625 C17.86699219 1.64628906 19.04648438 1.73007813 20.26171875 1.81640625 C21.61716797 1.90728516 21.61716797 1.90728516 23 2 C20.08170425 4.91829575 17.81124085 4.30055517 13.75 4.3125 C11.79320313 4.33763672 11.79320313 4.33763672 9.796875 4.36328125 C5.83843565 3.98454168 3.40030025 3.00110838 0 1 C0 0.67 0 0.34 0 0 Z " fill="#231F20" transform="translate(62,191)"/>
<path d="M0 0 C5.28 0 10.56 0 16 0 C16 0.66 16 1.32 16 2 C13.05173237 2.98275588 11.07347496 3.13414725 8 3.125 C6.700625 3.12886719 6.700625 3.12886719 5.375 3.1328125 C3 3 3 3 0 2 C0 1.34 0 0.68 0 0 Z " fill="#252122" transform="translate(291,193)"/>
<path d="M0 0 C0.66 0.66 1.32 1.32 2 2 C-0.97041449 3.48520725 -3.69764447 3.1705822 -7 3.1875 C-8.8871875 3.20876953 -8.8871875 3.20876953 -10.8125 3.23046875 C-14 3 -14 3 -16 1 C-4.15114423 -0.31133582 -4.15114423 -0.31133582 0 0 Z " fill="#201C1D" transform="translate(189,192)"/>
<path d="M0 0 C2.62527189 -0.05382106 5.24944713 -0.09358313 7.875 -0.125 C8.62136719 -0.14175781 9.36773437 -0.15851563 10.13671875 -0.17578125 C12.09194461 -0.1933959 14.04742021 -0.10320189 16 0 C16.66 0.66 17.32 1.32 18 2 C17 3 17 3 13.9375 3.0625 C12.968125 3.041875 11.99875 3.02125 11 3 C11 2.67 11 2.34 11 2 C7.37 1.67 3.74 1.34 0 1 C0 0.67 0 0.34 0 0 Z " fill="#565354" transform="translate(72,192)"/>
<path d="M0 0 C-0.33 0.99 -0.66 1.98 -1 3 C-3.3431213 2.74438677 -5.67843403 2.40729228 -8 2 C-8.33 1.34 -8.66 0.68 -9 0 C-5.93109813 -1.53445094 -3.29905734 -0.54984289 0 0 Z " fill="#353132" transform="translate(14,191)"/>
<path d="M0 0 C4.62 0 9.24 0 14 0 C14 0.99 14 1.98 14 3 C13.175 2.855625 12.35 2.71125 11.5 2.5625 C7.67313722 1.94746848 3.84783293 1.46439363 0 1 C0 0.67 0 0.34 0 0 Z " fill="#1E1A1B" transform="translate(297,166)"/>
</svg>
